<svg version="1" xmlns="http://www.w3.org/2000/svg" id="icon-laravel" viewBox="0 0 1796 1229">
  <path fill="#fc543c" d="M354.5 2.1C305.1 5.9 141.3 19.1 83 24c-42.4 3.5-60.9 5.4-64.5 6.6-8.1 2.8-13 6.7-16 12.9C-.1 48.6-.2 49.6.2 59.7c.4 8.8 1 12.5 3.7 20.3 5.6 16.5 39.2 89.7 305.6 665.5 36.1 78.1 67.6 146.2 70.1 151.4 10.4 22.1 25.1 36 44.9 42.1 8.9 2.8 25.3 3.7 36.6 2.1 12.2-1.8 103.5-25 303.3-77.2 46.2-12 84-21.8 84.1-21.6.1.1 16.5 29.7 36.5 65.7 84.2 152 143.8 256.6 161.8 284 10 15.1 22 27.6 31.5 32.6 7.1 3.8 7.4 3.9 19.9 4.2 11.6.4 13.8.1 25.5-2.8 16.3-4.1 38.2-11.3 102.3-34 131-46.3 430.5-154 489.4-176 12.1-4.5 25-9.7 28.8-11.6 18.8-9.5 21-19 8.5-37.4-7.3-10.7-88.4-120-177.8-239.7l-42.8-57.2 5.2-1.5c2.9-.8 58.8-15.7 124.2-33.1 72.5-19.3 121.1-32.7 124.5-34.3 7.3-3.7 10.3-8.1 9.7-14.4-.5-5.7-1-6.6-20.3-30-8.3-10-46.7-57.7-85.4-105.8-87.5-108.8-106.3-132-112.9-139.2-6.9-7.6-17.3-15.3-23.9-17.8-10.8-4.1-7.4-4.5-193.2 26.6-50.9 8.5-95.4 16.3-99 17.4-8.1 2.4-15.4 7-17.4 10.9-1.8 3.5-2.1 9.5-.5 13.8.5 1.7 42.1 61.3 92.4 132.4 74.6 105.7 91 129.5 89.7 130.1-3.7 1.7-539.7 129.6-540.4 129-.4-.4-97.9-163.4-216.9-362.2C549 193.2 449.4 27.1 446.6 23c-7.3-10.7-14.3-17.4-21.3-20.1C420 .8 417.7.6 399.5.4c-12.6-.2-29.2.5-45 1.7zm38.7 50.1c.9.7 4.2 5.8 7.4 11.3 3.1 5.5 95.1 164.3 204.4 353 109.3 188.6 199.4 344.4 200.3 346.2 2.2 4.2 2.1 8.6-.1 10.6-1 .9-8.3 3.2-16.3 5.1C765 784.2 489.2 850 480 852.1c-20.4 4.8-21.3 4.7-24-1.4-4.4-10.4-215.2-445.7-331.4-684.6C103.4 122.4 85.7 85 85.4 83c-.4-2.4-.1-4 .8-4.7.7-.6 32.2-3.8 72.3-7.3 39.1-3.4 105.4-9.2 147.5-13 42.1-3.7 78.6-6.8 81.1-6.9 2.5-.1 5.2.5 6.1 1.1zm1153 292.4c3.3 1.7 6.1 5 28.9 34.4 10 12.9 44.2 56.3 75.8 96.5 46.1 58.4 57.6 73.6 57.6 75.9 0 2.5-.7 3.3-4.5 5.2-2.5 1.2-11.5 3.8-20 5.9-8.5 2-56.4 13.8-106.4 26.1-50 12.4-91 22.3-91.1 22.2-6-7.6-160.3-220.4-161.6-222.7-2.1-3.9-1.2-6.8 2.4-7.6 1.2-.2 12.8-2.3 25.7-4.5 32.7-5.7 176.7-31.9 181-32.9 4-1 8.3-.5 12.2 1.5zm-72.3 340.2c2 2.1 7.8 9.8 13 17.2 9.5 13.6 40.4 56 123.8 170.1 24.8 33.9 46.8 64.1 48.8 67.2 6.4 9.7 4.5 11.8-18.3 19.5-24.8 8.4-369.7 125.4-420.7 142.7-26.4 9-58.6 20-71.5 24.5-31.9 11.1-30.8 10.9-36.7 7.9-2.9-1.5-6.6-4.8-9.5-8.3-6.4-8-29.2-46.4-108-182.1-66.8-115-70-120.7-69.1-121.4.4-.4 118.3-31.3 261.8-68.6 143.6-37.3 264.4-68.8 268.5-70.1 11-3.3 13.5-3.2 17.9 1.4z"/>
</svg>