<svg aria-hidden="true" xmlns="http://www.w3.org/2000/svg" id="icon-mysql" viewBox="0 0 258.667 258.667">
  <path d="M11.685 171.857h7.734V141.22l12.076 26.71c1.369 3.213 3.332 4.403 7.139 4.403 3.807 0 5.651-1.19 7.08-4.402L57.73 141.22v30.637h7.793V141.22c0-2.975-1.19-4.403-3.688-5.176-5.89-1.785-9.816-.238-11.6 3.748l-11.839 26.413-11.422-26.413c-1.726-3.986-5.71-5.533-11.66-3.748-2.439.773-3.63 2.201-3.63 5.176v30.637M71.948 146.93h7.794v16.837c-.06.951.297 3.093 4.52 3.152 2.202.06 16.777 0 16.896 0v-20.107h7.793v27.544c0 6.781-8.388 8.269-12.314 8.328h-24.51v-5.176h24.57c4.996-.535 4.401-3.033 4.401-3.866v-2.023H84.62c-7.675-.06-12.612-3.45-12.672-7.317 0-.357.18-17.253 0-17.371M239.115 127.418c-4.759-.12-8.447.357-11.542 1.666-.892.357-2.32.357-2.438 1.487.476.476.536 1.25.952 1.904.713 1.19 1.964 2.796 3.093 3.629 1.25.951 2.499 1.903 3.808 2.736 2.32 1.428 4.937 2.26 7.197 3.689 1.31.832 2.618 1.903 3.927 2.796.655.476 1.07 1.249 1.904 1.546v-.178c-.416-.536-.536-1.31-.952-1.904-.595-.595-1.19-1.13-1.785-1.725-1.724-2.32-3.867-4.343-6.187-6.009-1.904-1.309-6.068-3.093-6.841-5.295 0 0-.06-.058-.119-.118 1.308-.12 2.856-.595 4.105-.952 2.023-.535 3.867-.417 5.948-.952.952-.238 1.904-.535 2.856-.833v-.535c-1.07-1.071-1.844-2.499-2.974-3.51-3.034-2.617-6.366-5.176-9.816-7.317-1.844-1.19-4.224-1.964-6.187-2.975-.713-.357-1.904-.535-2.32-1.13-1.07-1.309-1.665-3.034-2.439-4.58-1.725-3.273-3.392-6.902-4.878-10.351-1.071-2.322-1.726-4.642-3.034-6.783-6.128-10.113-12.79-16.241-23.024-22.25-2.2-1.249-4.817-1.783-7.614-2.438-1.487-.06-2.974-.179-4.462-.239-.952-.416-1.902-1.546-2.736-2.081-3.39-2.143-12.136-6.783-14.634-.655-1.607 3.867 2.38 7.675 3.748 9.638 1.01 1.368 2.32 2.914 3.034 4.461.416 1.012.535 2.083.951 3.153.952 2.618 1.844 5.532 3.095 7.972.653 1.25 1.368 2.558 2.2 3.688.476.655 1.309.952 1.488 2.023-.834 1.19-.894 2.975-1.37 4.461-2.141 6.723-1.308 15.052 1.726 19.99.952 1.486 3.213 4.758 6.246 3.509 2.678-1.07 2.083-4.461 2.856-7.436.179-.713.06-1.19.416-1.665v.118c.834 1.666 1.666 3.272 2.439 4.938 1.845 2.916 5.057 5.949 7.733 7.972 1.43 1.07 2.559 2.914 4.344 3.57v-.18h-.12c-.357-.535-.892-.773-1.368-1.19-1.07-1.07-2.26-2.379-3.093-3.569-2.499-3.331-4.7-7.02-6.663-10.827-.952-1.844-1.785-3.867-2.557-5.711-.357-.715-.357-1.784-.952-2.141-.893 1.308-2.201 2.438-2.856 4.045-1.13 2.559-1.25 5.71-1.665 8.983-.239.06-.119 0-.239.118-1.904-.476-2.557-2.438-3.272-4.104-1.784-4.224-2.083-11.005-.535-15.884.416-1.249 2.202-5.176 1.487-6.365-.357-1.13-1.547-1.785-2.201-2.677-.774-1.131-1.607-2.558-2.142-3.808-1.428-3.331-2.141-7.019-3.688-10.351-.714-1.547-1.962-3.153-2.974-4.58-1.131-1.607-2.38-2.737-3.272-4.641-.298-.655-.714-1.724-.238-2.439.119-.476.356-.653.832-.773.774-.655 2.975.178 3.748.536 2.202.892 4.046 1.724 5.89 2.974.833.595 1.725 1.724 2.796 2.022h1.249c1.904.417 4.045.12 5.83.654 3.153 1.012 6.009 2.499 8.567 4.106 7.792 4.937 14.218 11.957 18.56 20.345.714 1.368 1.011 2.617 1.666 4.045 1.249 2.915 2.797 5.89 4.045 8.746 1.25 2.796 2.44 5.652 4.224 7.972.893 1.248 4.463 1.902 6.068 2.557 1.19.536 3.035 1.012 4.105 1.665 2.023 1.25 4.046 2.678 5.948 4.046.952.714 3.927 2.201 4.106 3.391" fill="#005c87"/>
  <path d="M178.436 75.721a9.416 9.416 0 0 0-2.44.298v.118h.119c.476.952 1.309 1.607 1.904 2.439.476.952.892 1.904 1.368 2.856.06-.059.118-.119.118-.119.834-.594 1.25-1.546 1.25-2.974-.356-.416-.416-.834-.714-1.25-.356-.594-1.13-.892-1.605-1.368" fill="#005c87"/>
  <path d="M114.9 171.857h22.368c2.617 0 5.116-.535 7.139-1.487 3.39-1.547 4.997-3.629 4.997-6.366v-5.71c0-2.202-1.844-4.284-5.532-5.712-1.904-.713-4.284-1.13-6.604-1.13h-9.4c-3.152 0-4.64-.952-5.056-3.034-.06-.238-.06-.476-.06-.714v-3.51c0-.178 0-.416.06-.654.417-1.606 1.25-2.023 3.986-2.32H149.7v-5.176h-21.773c-3.153 0-4.818.178-6.306.654-4.58 1.428-6.603 3.688-6.603 7.674v4.522c0 3.51 3.926 6.484 10.59 7.198.713.06 1.486.06 2.26.06h8.031c.297 0 .595 0 .833.06 2.439.237 3.51.654 4.224 1.546.475.476.595.892.595 1.428v4.52c0 .536-.357 1.25-1.07 1.845-.715.595-1.846 1.012-3.333 1.07-.297 0-.476.06-.773.06H114.9v5.176M197.83 162.874c0 5.295 3.985 8.27 11.957 8.864.773.06 1.486.119 2.26.119h20.226v-5.176h-20.405c-4.52 0-6.247-1.13-6.247-3.866v-26.77h-7.792v26.829M154.341 163.112V144.67c0-4.7 3.332-7.555 9.816-8.448.715-.059 1.428-.118 2.083-.118h14.753c.774 0 1.428.06 2.202.118 6.484.893 9.756 3.748 9.756 8.448v18.442c0 3.807-1.368 5.83-4.582 7.198l7.616 6.9h-8.982l-6.188-5.59-6.247.356h-8.328c-1.368 0-2.916-.179-4.521-.595-4.938-1.368-7.378-3.986-7.378-8.269zm8.388-.416c0 .237.12.475.179.773.416 2.141 2.44 3.332 5.533 3.332h7.019l-6.424-5.83h8.983l5.652 5.115c1.07-.594 1.724-1.427 1.962-2.498.06-.238.06-.535.06-.773v-17.67c0-.237 0-.475-.06-.713-.416-2.023-2.438-3.153-5.473-3.153h-11.719c-3.45 0-5.712 1.487-5.712 3.867v17.55M235.843 171.917h1.13v-4.344h1.487v-.892h-4.164v.892h1.547zm8.626 0h1.071v-5.236h-1.607l-1.308 3.57-1.428-3.57h-1.546v5.236h1.01v-3.986h.06l1.487 3.986h.773l1.488-3.986v3.986" fill="#e3820f"/>
</svg>
