<svg aria-hidden="true" xmlns="http://www.w3.org/2000/svg" id="icon-php" viewBox="0 0 32 32">
  <path fill="#777bb4" d="M9.347 13.609H8.088l-.687 3.531h1.117c.741 0 1.293-.14 1.656-.419.363-.28.607-.745.733-1.399.123-.627.067-1.069-.165-1.327-.233-.257-.697-.387-1.396-.387z"/>
  <path fill="#777bb4" d="M16 7.584C7.164 7.584 0 11.352 0 16s7.164 8.417 16 8.417S32 20.648 32 16s-7.164-8.416-16-8.416zm-4.347 9.935a3.246 3.246 0 0 1-1.223.735c-.448.144-1.02.219-1.713.219H7.142l-.436 2.241H4.869l1.64-8.435h3.533c1.063 0 1.837.279 2.325.837.488.557.635 1.336.44 2.336a3.799 3.799 0 0 1-.416 1.148l.01-.019c-.191.34-.44.653-.748.937zm5.366.953l.724-3.732c.084-.424.052-.715-.091-.868-.143-.155-.448-.232-.916-.232H15.28l-.939 4.833h-1.824l1.64-8.436h1.823l-.436 2.243h1.624c1.023 0 1.727.179 2.115.535s.504.933.351 1.732l-.763 3.925h-1.852zm10.129-3.02c-.08.425-.221.803-.416 1.148l.01-.018c-.191.34-.44.653-.748.937a3.247 3.247 0 0 1-1.2.728l-.023.007c-.448.144-1.02.219-1.715.219h-1.573l-.436 2.243H19.21l1.64-8.435h3.532c1.063 0 1.837.279 2.325.837.488.556.636 1.335.441 2.335z"/>
  <path fill="#777bb4" d="M23.688 13.609h-1.257l-.688 3.531h1.117c.743 0 1.295-.14 1.656-.419.363-.28.607-.745.735-1.399.123-.627.065-1.069-.167-1.327s-.699-.387-1.396-.387z"/>
</svg>
