<svg version="1" xmlns="http://www.w3.org/2000/svg" viewBox="0 0 1127 904">
  <path d="M525.5 5.6c-21.1 1.3-49.7 3.8-66 5.9-174.1 22.1-319.2 95.4-397.1 200.7C9.3 284-7.1 365.7 14.6 450.3c30.6 118.8 137.3 217.3 292.9 270.3 62.9 21.5 130.3 34.2 204 38.5 25 1.5 92.2.6 116-1.5 42.1-3.7 85.7-10.3 119.5-18 5.8-1.3 10.7-2.3 11-2.1.3.1 60.1 36.3 132.9 80.5 117 71 133 80.4 137.2 80.8 2.6.2 5.9.2 7.3-.2 3.3-.8 8.3-5.2 10.3-8.9 3.8-7.5 5-4.3-46.6-121.7-44.6-101.4-48-109.4-46.3-110.6 4.5-3.2 33.7-26.6 42.7-34.2 71.3-60.9 109.6-121.3 122.4-192.7 4.5-25.7 5.3-63.7 1.7-88-7.3-49.5-27.8-94.9-62.2-138-17.5-21.9-50.3-52.8-76.9-72.5C898.8 71.6 785.8 27.6 671 11.6c-36.2-5.1-46.9-5.8-94.5-6.1-24.7-.1-47.7-.1-51 .1zm88.1 34.5c172.6 11.4 341.1 87.7 420.6 190.6 16.4 21.1 32.3 49.4 40.2 71.3 20.2 56.3 17.6 121.8-7 177.3-22 49.8-59.9 92.3-132.2 148.2-20.6 16-22.7 18.5-22 26.8.4 4 9.4 25.4 40 94.7 21.7 49.2 39.4 89.7 39.2 89.8-.1.2-49.9-29.7-110.6-66.6-60.7-36.8-111.7-67.6-113.5-68.6-4-2-8.9-2-17.3 0-66.5 15.8-137.4 23.4-207.5 22.1-43.4-.8-74.8-3.5-112.5-9.7-149.2-24.6-270.3-89.3-337.8-180.4-32-43.3-50.1-92-53.2-143.6-3.5-59.5 14.8-114.1 56.6-168 11.7-15.2 40.5-43.9 57.4-57.4 92.9-74 222.4-118.4 369-126.5 21.8-1.2 72.6-1.2 90.6 0z"/>
</svg>
