<svg aria-hidden="true" xmlns="http://www.w3.org/2000/svg" id="icon-vilnius" viewBox="0 0 1844 1542">
  <path fill="#c1272d" d="M794.7 12.7c-.4 7.1-1.2 27-1.8 44.3l-1.3 31.5-27.9 6.4c-15.4 3.4-28.3 5.9-28.7 5.4-.4-.4-4.2-17-8.4-36.8C715.9 13.6 716 14 714.7 14c-.7 0-42.9 14.1-94 31.2-78 26.3-92.8 31.6-93.2 33.3-.2 1.1-22.8 175.4-50 387.4-40.4 314.1-49.4 385.7-48.3 386.6.7.7 69.4 42 152.7 91.9l151.4 90.6 83.1.2c45.7.1 131.5 0 190.6-.2l107.5-.3 152.2-91.1c120.4-72 152.3-91.5 152.3-93.1 0-3.8-99.2-773-99.9-773.6-.8-.8-184.9-62.9-186.5-62.9-.8 0-4.4 14.8-10.5 43.2-5.1 23.8-9.5 43.5-9.7 43.7-.2.2-12.9-2.5-28.3-6l-28-6.3-.5-7c-.3-3.9-1-19.9-1.6-35.6-.6-15.7-1.3-32.4-1.6-37.3l-.6-8.7H795.3l-.6 12.7zm166.6 82l18.7.6v40.3c0 37.5.1 40.3 1.8 40.8.9.3 40.9 9.1 88.7 19.6 47.9 10.5 87.7 19.3 88.5 19.5 1.2.4 3.2-7 10.4-39.8 4.8-22.1 9.1-40.5 9.5-40.8.3-.3 10.5 2.3 22.6 5.9l22.1 6.5 38.3 317.3c21.1 174.5 38.2 317.7 38 318.3-.2.6-49.3 30.5-109.1 66.4l-108.6 65.4-158.9-.1-158.8-.1L656 849.2c-59.7-36-108.6-65.5-108.8-65.7-.3-.3 75.5-630.4 76.3-634.1.4-1.7 3.7-3 21.7-8.3 11.6-3.5 21.7-6.5 22.3-6.7.8-.3 4.1 12.7 10 39.3 4.8 21.9 9 40.3 9.4 40.9.4.7 30.2-5.5 89.8-18.6 49.1-10.8 89.5-19.8 89.7-20.1.2-.2.8-18.5 1.2-40.6l.7-40.2 12.1-.4c25.9-.6 63-.7 80.9 0zM1701.5 1234.6c-31.4 4.6-55.5 16-72.8 34.3-17.3 18.4-24.7 42.4-21.9 70.9 1.5 14.9 3.3 21.5 8.7 32.7 14 29.1 45.4 44.3 99.5 48.5 19 1.4 25.9 2.5 35 5.5 8.8 2.9 14.5 7.2 17.1 12.9 4.7 10.3-.1 20.5-12.3 26.7-15.2 7.7-43.3 7.9-60.4.4-9.3-4.1-17.4-13.4-17.4-20v-2.5h-75v4.9c0 2.6.7 8.8 1.5 13.6 7.6 43.5 48.2 73.8 105.6 78.7 29.8 2.5 59.6-2.9 84.1-15.4 33.3-17 50.8-44.1 50.8-78.8 0-43.6-20.8-69-65.7-80.4-12-3.1-23.3-4.9-46.3-7.6-34-4-44.9-7.9-50-18-2.7-5.2-2.7-14.7-.1-19.9 11-21.5 57.3-25.9 73.5-6.9 3.2 3.7 5.6 9.5 5.6 13.7v2.1h74.2l-.7-8.8c-3.1-37.1-26.4-65.6-65-79.2-16.2-5.7-25.1-7.1-46-7.5-10.4-.2-20.3-.1-22 .1zM747 1269v33h40v233h80l.2-71.9.3-71.9 74.5 71.9 74.5 71.9h28.5v-296h-79l-.2 71.5-.3 71.6-75.5-73-75.5-73-33.7-.1H747v33zM0 1245c0 5.8 2.3 11.2 63.8 149.5l63.7 143.5 16.9-.3 17-.2 63.2-143.5c59.3-134.3 63.3-143.9 63.4-149.3v-5.7h-37.4c-29 0-37.5.3-37.9 1.2-5.3 13.9-67.1 164.5-67.7 165.1-.4.5-3.1-4.7-5.9-11.5-2.9-6.8-18.6-44.3-34.9-83.3l-29.7-71-37.3-.3L0 1239v6zM330 1272v33h35v163h-38v67h153v-67h-38v-163h35v-66H330v33zM539 1387v148h186v-69H617v-227h-78v148zM1109 1272v33h35v163h-38v67h152v-67h-38v-163h35v-66h-146v33zM1315 1343.7c0 98.3.1 105.4 1.9 113.8 7.2 34.8 34.4 62.8 72.7 74.8 16.5 5.2 23.6 6.2 43.9 6.2 14.1 0 21.2-.5 27.7-1.8 42.6-8.6 73.8-33.5 85.9-68.4 4.8-14.1 4.9-15.7 4.9-125.9V1239h-74v100.7c0 65.5-.4 102.1-1 104.5-2.7 9.5-12.4 18.6-24.3 22.8-8.7 3.1-24 3.8-32.7 1.6-14-3.5-23-10-27.9-19.8l-3.1-6.1V1239h-74v104.7z"/>
</svg>