<svg viewBox="0 0 20 20" aria-hidden="true" xmlns="http://www.w3.org/2000/svg">
  <path d="M10 20C4.477 20 0 15.523 0 10S4.477 0 10 0s10 4.477 10 10-4.477 10-10 10zm7.75-8a8.053 8.053 0 0 0-.012-4.056l.013.056h-3.82a29 29 0 0 1-.005 4.093l.005-.093h3.82zm-.82 2h-3.22a14.455 14.455 0 0 1-.985 3.605l.035-.095a8.087 8.087 0 0 0 4.15-3.472l.02-.038zm-8.85-2h3.84a24.91 24.91 0 0 0-.007-4.09l.006.09h-3.84a24.91 24.91 0 0 0 .007 4.09L8.08 12zm.25 2c.41 2.4 1.13 4 1.67 4s1.26-1.6 1.67-4H8.33zm-6.08-2h3.82a29 29 0 0 1 .005-4.093L6.07 8H2.25a8.053 8.053 0 0 0 .012 4.056L2.249 12zm.82 2a8.08 8.08 0 0 0 4.115 3.492l.055.018c-.42-.96-.74-2.16-.95-3.51H3.07zm13.86-8a8.08 8.08 0 0 0-4.115-3.492l-.055-.018c.42.96.74 2.16.95 3.51h3.22zm-8.6 0h3.34c-.41-2.4-1.13-4-1.67-4S8.74 3.6 8.33 6zM3.07 6h3.22c.2-1.35.53-2.55.95-3.51a8.087 8.087 0 0 0-4.15 3.472L3.07 6z"/>
</svg>
