<svg aria-hidden="true" xmlns="http://www.w3.org/2000/svg">
  <defs>
    <symbol id="icon-javascript" viewBox="0 0 256 256">
      <path fill="#f7df1e" d="M0 0h256v256H0V0z"/>
      <path d="M67.312 213.932l19.59-11.856c3.78 6.701 7.218 12.371 15.465 12.371 7.905 0 12.89-3.092 12.89-15.12v-81.798h24.057v82.138c0 24.917-14.606 36.259-35.916 36.259-19.245 0-30.416-9.967-36.087-21.996M152.381 211.354l19.588-11.341c5.157 8.421 11.859 14.607 23.715 14.607 9.969 0 16.325-4.984 16.325-11.858 0-8.248-6.53-11.17-17.528-15.98l-6.013-2.58c-17.357-7.387-28.87-16.667-28.87-36.257 0-18.044 13.747-31.792 35.228-31.792 15.294 0 26.292 5.328 34.196 19.247L210.29 147.43c-4.125-7.389-8.591-10.31-15.465-10.31-7.046 0-11.514 4.468-11.514 10.31 0 7.217 4.468 10.14 14.778 14.608l6.014 2.577c20.45 8.765 31.963 17.7 31.963 37.804 0 21.654-17.012 33.51-39.867 33.51-22.339 0-36.774-10.654-43.819-24.574"/>
    </symbol>
    <symbol id="icon-gmail" viewBox="0 0 32 32">
      <path fill="#d14836" d="M32 6v20c0 1.133-.867 2-2 2h-2V9.849l-12 8.617L4 9.849V28H2c-1.135 0-2-.867-2-2V6c0-.567.216-1.067.575-1.424A1.98 1.98 0 0 1 2 4h.667L16 13.667 29.333 4H30c.567 0 1.067.216 1.425.576.36.357.575.857.575 1.424z"/>
    </symbol>    
    <symbol id="icon-github" viewBox="0 0 32 32">
      <path d="M16 .396c-8.84 0-16 7.164-16 16 0 7.071 4.584 13.067 10.94 15.18.8.151 1.093-.344 1.093-.769 0-.38-.013-1.387-.02-2.72-4.451.965-5.389-2.147-5.389-2.147-.728-1.847-1.78-2.34-1.78-2.34-1.449-.992.112-.972.112-.972 1.607.112 2.451 1.648 2.451 1.648 1.427 2.447 3.745 1.74 4.66 1.331.144-1.035.556-1.74 1.013-2.14-3.553-.4-7.288-1.776-7.288-7.907 0-1.747.62-3.173 1.647-4.293-.18-.404-.72-2.031.14-4.235 0 0 1.34-.429 4.4 1.64 1.28-.356 2.64-.532 4-.54 1.36.008 2.72.184 4 .54 3.04-2.069 4.38-1.64 4.38-1.64.86 2.204.32 3.831.16 4.235 1.02 1.12 1.64 2.547 1.64 4.293 0 6.147-3.74 7.5-7.3 7.893.56.48 1.08 1.461 1.08 2.96 0 2.141-.02 3.861-.02 4.381 0 .42.28.92 1.1.76C27.42 29.455 32 23.455 32 16.395c0-8.836-7.164-16-16-16z"/>
    </symbol>
    <symbol id="icon-html5" viewBox="0 0 32 32">
      <path fill="#e34f26" d="M2 0h28l-2.547 28.751L15.969 32 4.55 28.749 1.999 0zm9.375 13l-.309-3.624 13.412.004.307-3.496L7.217 5.88l.931 10.68h12.168l-.435 4.568-3.88 1.072-3.94-1.08-.251-2.813H8.331l.44 5.561L16 25.801l7.172-1.924.992-10.876H11.375z"/>
    </symbol>
    <symbol id="icon-mongodb" viewBox="0 0 32 32">
      <path fill="#47a248" d="M22.907 12.691c-1.684-7.413-5.656-9.849-6.083-10.781-.469-.657-.977-1.909-.977-1.909l-.007.065v.017h-.001a.48.48 0 0 0-.005.052v.02h-.003c0 .013-.003.024-.003.035v.035h-.004c-.001.011-.001.024-.004.033v.028h-.003c0 .009 0 .02-.003.028v.027h-.003a.322.322 0 0 1-.003.043v.003l-.012.067v.011h-.003c-.001.005-.004.011-.004.016v.023h-.004v.029h-.007v.024h-.007v.028h-.005V.61h-.005v.023h-.008v.019h-.005v.024h-.005v.019h-.007v.017h-.004v.02h-.005l-.001.005V.75h-.004l-.001.008v.008h-.003l-.003.013-.013.028V.81l-.007.009V.83h-.005v.011h-.007v.011h-.004v.013h-.008v.019h-.005v.005h-.005V.9h-.005v.015h-.005v.011h-.008v.015h-.005v.011h-.007v.011h-.004v.013h-.007v.011h-.005v.008h-.005v.011h-.008v.012h-.005v.008h-.007v.011h-.005v.015h-.007v.005h-.004v.011h-.008v.005h-.005v.013h-.005v.005h-.005v.011h-.007v.008h-.004l-.003.005v.005h-.003c-.001.003-.003.003-.003.005v.001h-.001a.02.02 0 0 1-.005.009v.004h-.001c-.007.008-.011.016-.016.024v.001c-.003.003-.009.008-.012.013v.003h-.001l-.004.004v.004h-.003l-.004.004v.001h-.001l-.004.005v.005h-.004l-.003.003v.003h-.003c0 .003-.003.003-.003.004v.004h-.005l-.003.004v.008h-.004v.005h-.005v.008h-.005v.011h-.007v-.011h-.007v.005h-.005v.008h-.007v.011h-.007v.005h-.005v.008h-.005v.005h-.005v.011h-.008V1.3h-.005v.008h-.007v.005h-.005v.007h-.007v.013h-.003v.005h-.008v.007h-.005v.003h-.005v.005h-.007v.013h-.005v.005h-.007v.005h-.005v.008h-.007v.005h-.007v.005H15.3v.005h-.005v.013h-.005v.007h-.008v.005h-.005v.005h-.007v.008h-.005v.005h-.007v.009h-.005v.005h-.008v.008h-.003v.005h-.005v.005h-.007v.005h-.005v.008h-.007v.005h-.004l-.001.003v.003h-.003l-.005.005-.005.004v.008h-.005v.007h-.005v.005h-.005v.005h-.004l-.004.004v.004h-.003l-.003.003v.004h-.003c-.007.008-.009.013-.019.021l-.016.013a.493.493 0 0 0-.052.043c-.011.007-.021.016-.029.023v.001h-.001a7.387 7.387 0 0 1-.065.052v.001l-.099.083v-.001h-.003c-.076.063-.156.133-.248.212v.001h-.001c-.225.197-.493.451-.793.757l-.025.025c-1.813 1.876-4.671 5.785-4.972 12.103-.027.523-.021 1.031.008 1.525v.012c.145 2.489.927 4.615 1.904 6.341v.001a16.56 16.56 0 0 0 1.235 1.873v.001c1.469 1.94 2.969 3.089 3.352 3.368.588 1.364.533 3.705.533 3.705l.859.287s-.175-2.268.071-3.363a2.08 2.08 0 0 1 .465-.883c.141-.1.56-.401 1.063-.86.024-.025.037-.048.059-.072 2.028-1.891 5.816-6.547 4.517-14.132z"/>
    </symbol>
    <symbol id="icon-facebook" viewBox="0 0 32 32">
      <path fill="#3b5998" d="M30.235 0H1.766C.791 0 .001.791.001 1.765v28.469c0 .976.791 1.765 1.765 1.765h15.325V19.607h-4.172v-4.828h4.172v-3.567c0-4.132 2.525-6.38 6.212-6.38 1.767 0 3.285.129 3.728.188v4.32H24.47c-2 0-2.389.961-2.389 2.361v3.081h4.779l-.62 4.84h-4.159v12.376h8.153c.977 0 1.767-.789 1.767-1.765V1.764c0-.975-.789-1.765-1.765-1.765z"/>
    </symbol>
    <symbol id="icon-messenger" viewBox="0 0 32 32">
      <path fill="#0084ff" d="M16 0c-8.836 0-16 6.632-16 14.815 0 4.664 2.325 8.819 5.959 11.539v5.647l5.451-2.989c1.456 0.4 2.995 0.619 4.591 0.619 8.836 0 16-6.633 16-14.813s-7.164-14.816-16-14.816zM17.588 19.951l-4.073-4.347-7.951 4.347 8.745-9.284 4.175 4.345 7.852-4.345-8.748 9.284z"/>
    </symbol>
    <symbol id="icon-redux" viewBox="0 0 32 32">
      <path fill="#764abc" d="M22.177 22.005c1.159-.1 2.057-1.12 1.999-2.339-.061-1.219-1.06-2.197-2.277-2.197h-.081a2.28 2.28 0 0 0-2.197 2.359c.04.639.301 1.159.659 1.537-1.397 2.717-3.495 4.715-6.672 6.393-2.137 1.117-4.395 1.539-6.592 1.239-1.837-.259-3.275-1.08-4.155-2.397-1.317-1.999-1.437-4.155-.34-6.312.801-1.559 1.999-2.697 2.799-3.257a13.28 13.28 0 0 1-.56-2.056C-1.155 19.211-.553 25.003 1.244 27.74c1.339 1.997 4.076 3.275 7.072 3.275.799 0 1.639-.059 2.457-.259 5.195-.999 9.129-4.115 11.387-8.709l.019-.041z"/>
      <path fill="#764abc" d="M29.308 17.011c-3.095-3.636-7.651-5.633-12.845-5.633h-.68c-.337-.739-1.116-1.199-1.996-1.199h-.06c-1.257 0-2.237 1.08-2.196 2.337.04 1.197 1.059 2.197 2.277 2.197h.099c.9-.04 1.679-.6 1.997-1.399h.74c3.079 0 5.993.899 8.651 2.656 2.036 1.339 3.496 3.096 4.315 5.195.717 1.717.679 3.396-.06 4.796-1.139 2.196-3.057 3.356-5.593 3.356-1.599 0-3.156-.5-3.956-.859-.479.397-1.279 1.057-1.859 1.457 1.757.797 3.536 1.257 5.253 1.257 3.896 0 6.791-2.196 7.891-4.315 1.197-2.397 1.099-6.432-1.959-9.888l-.019.04z"/>
      <path fill="#764abc" d="M8.653 22.723c.039 1.199 1.057 2.197 2.277 2.197h.08a2.25 2.25 0 0 0 2.197-2.357c0-1.199-1.039-2.196-2.257-2.196h-.081c-.08 0-.199 0-.3.039-1.657-2.797-2.357-5.795-2.096-9.028.159-2.437.959-4.556 2.396-6.313 1.199-1.499 3.456-2.239 4.995-2.277 4.315-.081 6.113 5.295 6.252 7.432l1.997.599C23.653 4.267 19.58.83 15.684.83c-3.656 0-7.031 2.657-8.391 6.553-1.857 5.195-.639 10.188 1.639 14.184-.199.26-.319.719-.279 1.157z"/>
    </symbol>
    <symbol id="icon-windows" viewBox="0 0 32 32">
      <path fill="#05a6f0" d="M0 4.599L13 2.8v12.601H0zm14.599-2L32 0v15.2H14.599zM0 16.8h13v12.601L0 27.598zm14.599 0H32V32l-17.2-2.401z"/>
    </symbol>
    <symbol id="icon-youtube" viewBox="0 0 32 32">
      <path fill="#f00" d="M31.327 8.273a4.026 4.026 0 0 0-2.756-2.777l-.028-.007c-2.493-.668-12.528-.668-12.528-.668s-10.009-.013-12.528.668A4.026 4.026 0 0 0 .71 8.245l-.007.028C.26 10.554.007 13.176.007 15.858v.163-.008.126c0 2.682.253 5.304.737 7.845l-.041-.26a4.026 4.026 0 0 0 2.756 2.777l.028.007c2.491.669 12.528.669 12.528.669s10.008 0 12.528-.669a4.026 4.026 0 0 0 2.777-2.756l.007-.028c.425-2.233.668-4.803.668-7.429l-.001-.297v.015l.001-.31c0-2.626-.243-5.196-.708-7.687l.04.258zM12.812 20.801V11.21l8.352 4.803z"/>
    </symbol>
    <symbol id="icon-photoshop" viewBox="0 0 32 32">
      <path fill="#00c8ff" d="M0 .4v31.2h32V.4H0zm1.333 1.333h29.333v28.533H1.333V1.733zm6.4 5.974c0-.089.187-.155.299-.155a73.618 73.618 0 0 1 3.437-.067c3.696 0 5.133 2.027 5.133 4.621 0 3.387-2.456 4.84-5.469 4.84-.507 0-.68-.023-1.033-.023v5.123c0 .111-.044.155-.153.155H7.888c-.111 0-.153-.04-.153-.151V7.706zm2.367 7.082c.307.021.549.021 1.08.021 1.56 0 3.027-.549 3.027-2.661 0-1.693-1.048-2.552-2.829-2.552-.528 0-1.033.021-1.276.044v5.152zm11.476-1.584c-1.056 0-1.408.528-1.408.968 0 .484.24.813 1.649 1.54 2.091 1.013 2.749 1.98 2.749 3.409 0 2.133-1.627 3.28-3.827 3.28-1.168 0-2.16-.244-2.733-.573-.087-.044-.107-.109-.107-.22v-1.956c0-.133.064-.177.152-.112a4.91 4.91 0 0 0 2.683.792c1.056 0 1.496-.44 1.496-1.035 0-.484-.307-.903-1.649-1.607-1.893-.907-2.685-1.827-2.685-3.369 0-1.716 1.341-3.147 3.673-3.147 1.147 0 1.952.176 2.392.373.109.067.133.176.133.264v1.827c0 .111-.067.177-.2.133-.592-.352-1.467-.573-2.324-.573z"/>
    </symbol>
    <symbol id="icon-react" viewBox="0 0 32 32">
      <path fill="#61dafb" d="M18.852 16a2.852 2.852 0 1 1-5.704 0 2.852 2.852 0 0 1 5.704 0zM8.011 21.673l-.629-.16C2.691 20.328.001 18.316.001 15.994s2.691-4.333 7.381-5.519l.629-.159.177.624a31.104 31.104 0 0 0 1.899 4.957l-.082-.186.135.284-.135.284a29.368 29.368 0 0 0-1.761 4.551l-.056.22-.177.623zm-.922-9.74c-3.565 1.001-5.753 2.533-5.753 4.061 0 1.527 2.188 3.059 5.753 4.061a32.611 32.611 0 0 1 1.662-4.263l-.086.202a30.435 30.435 0 0 1-1.511-3.828l-.065-.234zm16.9 9.74l-.177-.625a30.782 30.782 0 0 0-1.9-4.954l.081.184-.135-.284.135-.284a29.456 29.456 0 0 0 1.762-4.55l.056-.221.177-.624.631.159c4.689 1.185 7.38 3.197 7.38 5.52s-2.691 4.333-7.38 5.519l-.631.16zm-.654-5.678a33.038 33.038 0 0 1 1.576 4.061c3.567-1.003 5.753-2.535 5.753-4.061 0-1.528-2.188-3.059-5.753-4.061a32.424 32.424 0 0 1-1.662 4.262l.086-.2z"/>
      <path fill="#61dafb" d="M7.08 11.927l-.177-.623C5.584 6.656 5.984 3.325 8 2.163c1.977-1.141 5.152.207 8.479 3.621l.453.465-.453.465a31.6 31.6 0 0 0-3.162 3.853l-.068.103-.18.257-.313.027a31.667 31.667 0 0 0-5.264.86l.218-.047-.629.159zm2.528-8.84c-.357 0-.673.077-.94.231-1.325.764-1.56 3.42-.647 7.004a31.194 31.194 0 0 1 4.18-.658l.131-.01a33.328 33.328 0 0 1 2.756-3.414l-.02.022c-2.08-2.025-4.049-3.175-5.46-3.175zm12.785 27.149c-.001 0-.001 0 0 0-1.9 0-4.34-1.431-6.872-4.031l-.453-.465.453-.465a31.427 31.427 0 0 0 3.16-3.854l.068-.103.18-.257.312-.027a31.74 31.74 0 0 0 5.267-.858l-.218.046.629-.159.179.624c1.316 4.645.917 7.977-1.099 9.139a3.132 3.132 0 0 1-1.562.411h-.047.002zm-5.461-4.508c2.08 2.025 4.049 3.175 5.46 3.175h.001c.356 0 .673-.077.939-.231 1.325-.764 1.561-3.421.647-7.005a30.933 30.933 0 0 1-4.182.658l-.13.01a33.219 33.219 0 0 1-2.755 3.416l.02-.022z"/>
      <path fill="#61dafb" d="M24.92 11.927l-.629-.159c-1.453-.376-3.175-.664-4.939-.806l-.111-.007-.312-.027-.18-.257a31.57 31.57 0 0 0-3.237-3.966l.009.01-.453-.465.453-.465C18.846 2.372 22.02 1.024 24 2.164c2.016 1.163 2.416 4.493 1.099 9.14l-.179.624zm-5.253-2.274c1.523.139 2.969.364 4.312.668.915-3.584.679-6.24-.647-7.004-1.317-.761-3.793.405-6.4 2.944a33.376 33.376 0 0 1 2.666 3.289l.069.103zM9.608 30.236h-.046a3.153 3.153 0 0 1-1.577-.419l.015.008c-2.016-1.161-2.416-4.492-1.097-9.139l.176-.624.629.159c1.54.388 3.239.661 5.047.812l.313.027.179.257a31.521 31.521 0 0 0 3.239 3.967l-.01-.01.453.465-.453.465c-2.531 2.6-4.971 4.031-6.868 4.031zm-1.587-8.569c-.915 3.584-.679 6.241.647 7.005 1.316.751 3.791-.407 6.4-2.944a33.543 33.543 0 0 1-2.667-3.29l-.069-.103a33.315 33.315 0 0 1-4.534-.711l.224.043z"/>
      <path fill="#61dafb" d="M16 22.504c-1.097 0-2.225-.048-3.355-.141l-.313-.027-.18-.257a38.303 38.303 0 0 1-1.697-2.639l-.103-.19a36.12 36.12 0 0 1-1.45-2.728l-.105-.243-.133-.284.133-.284a38.537 38.537 0 0 1 1.658-3.161l-.103.191a40.4 40.4 0 0 1 1.8-2.829l.18-.257.313-.027a40.227 40.227 0 0 1 6.86.011l-.15-.011.312.027.179.257a39.103 39.103 0 0 1 3.252 5.56l.104.24.135.284-.135.284a39.328 39.328 0 0 1-3.439 5.925l.083-.125-.179.257-.312.027a41.083 41.083 0 0 1-3.356.141zm-2.929-1.445c1.973.148 3.885.148 5.86 0a37.57 37.57 0 0 0 2.827-4.836l.101-.228a37.891 37.891 0 0 0-3.012-5.19l.083.126a39.304 39.304 0 0 0-5.992.008l.134-.008a36.95 36.95 0 0 0-2.83 4.84l-.099.224a38.502 38.502 0 0 0 3.014 5.193l-.085-.13z"/>
    </symbol>
    <symbol id="icon-css3" viewBox="0 0 32 32">
      <path fill="#1572b6" d="M2 0h28l-2.547 28.751L15.969 32l-11.42-3.251L2 0zm22.787 5.884L7.214 5.88l.284 3.496 13.5.003-.34 3.621h-8.853l.32 3.431h8.243l-.488 4.697L16 22.2l-3.941-1.08-.251-2.813h-3.48l.387 5.14 7.287 2.271 7.164-2.04 1.623-17.792z"/>
    </symbol>
    <symbol id="icon-vscode" viewBox="0 0 32 32">
      <path fill="#007acc" d="M32 3.333v25.333l-8 3.333-24-7.333v-.748l24 2.06V-.001zM1.333 17.481l4.513-4.148-4.513-4.148 1.891-1.103 4.58 3.451L16 4l4 1.941v14.784l-4 1.941-8.196-7.533-4.579 3.452zm8.859-4.148L16 17.71V8.955z"/>
    </symbol>
    <symbol id="icon-mobile" viewBox="0 0 32 32">
      <path d="M23 0H9C7.35 0 6 1.35 6 3v26c0 1.65 1.35 3 3 3h14c1.65 0 3-1.35 3-3V3c0-1.65-1.35-3-3-3zM12 1.5h8v1h-8v-1zM16 30a2 2 0 1 1-.001-3.999A2 2 0 0 1 16 30zm8-6H8V4h16v20z"/>
    </symbol>
    <symbol id="icon-chrome" viewBox="0 0 256 257">
      <path fill="#EF3F36" d="M127.789.035s75.32-3.38 115.253 72.328H121.38s-22.96-.74-42.573 27.114c-5.634 11.691-11.69 23.734-4.894 47.468-9.79-16.586-51.975-90.04-51.975-90.04S51.693 3.028 127.788.035z"/>
      <path fill="#FCD900" d="M239.133 192.229s-34.756 66.94-120.253 63.63c10.564-18.276 60.848-105.358 60.848-105.358s12.149-19.508-2.183-50.425c-7.29-10.74-14.72-21.973-38.664-27.96 19.262-.175 103.95 0 103.95 0s31.726 52.715-3.698 120.113z"/>
      <path fill="#61BC5B" d="M16.973 192.757s-40.601-63.56 5.035-135.958c10.529 18.276 60.813 105.358 60.813 105.358s10.846 20.283 44.756 23.31c12.924-.95 26.375-1.76 43.56-19.472C161.663 182.757 119.16 256 119.16 256s-61.552 1.127-102.188-63.243z"/>
      <path fill="#5AB055" d="M118.845 256.493l17.113-71.412s18.804-1.48 34.58-18.769c-9.79 17.22-51.693 90.181-51.693 90.181z"/>
      <path fill="#00a0e3" d="M80.004 129.056c0-26.198 21.234-47.467 47.468-47.467 26.198 0 47.467 21.234 47.467 47.467 0 26.199-21.233 47.468-47.467 47.468-26.199 0-47.468-21.269-47.468-47.468z"/>
      <path fill="#EACA05" d="M242.795 72.152l-70.462 20.67s-10.634-15.6-33.487-20.67c19.825-.106 103.949 0 103.949 0z"/>
      <path fill="#DF3A32" d="M72.54 144.339c-9.896-17.149-50.602-87.434-50.602-87.434l52.186 51.622s-5.353 11.022-3.345 26.797l1.76 9.015z"/>
    </symbol>
    <symbol id="icon-express" viewBox="0 0 120 60">
      <path d="M40.011 41.753V18.708h1.251v3.625a4.74 4.74 0 0 0 .409-.51 6.195 6.195 0 0 1 5.65-3.507c2.852-.085 5.166.97 6.528 3.507a11.267 11.267 0 0 1 .272 10.33c-1.268 2.843-4.4 4.256-7.752 3.737a6.272 6.272 0 0 1-5.004-3.302v9.165zm1.251-14.892c.111 1.123.154 1.923.281 2.706.494 3.08 2.315 4.91 5.174 5.242a5.88 5.88 0 0 0 6.46-3.736 10.016 10.016 0 0 0-.222-8.238 5.761 5.761 0 0 0-6.067-3.353 5.608 5.608 0 0 0-5.013 4.145 28.424 28.424 0 0 0-.613 3.234zM80.758 29.992a6.74 6.74 0 0 1-6.587 5.957c-5.242.264-7.701-3.216-8.093-7.233a11.59 11.59 0 0 1 1.021-6.383 7.123 7.123 0 0 1 7.413-3.974 6.808 6.808 0 0 1 6.042 5.183 34.968 34.968 0 0 1 .587 3.83H67.363c-.255 3.642 1.702 6.569 4.476 7.275 3.456.851 6.409-.646 7.48-3.931.24-.843.673-.962 1.44-.724zm-13.395-3.787h12.314c-.076-3.88-2.493-6.689-5.77-6.731-3.71-.06-6.382 2.646-6.544 6.731zM83.294 30.077h1.209a4.842 4.842 0 0 0 2.842 4.17 7.43 7.43 0 0 0 6.45-.17 2.902 2.902 0 0 0 1.703-2.85 2.63 2.63 0 0 0-1.77-2.63c-1.328-.494-2.74-.766-4.094-1.2a29.998 29.998 0 0 1-4.119-1.507c-2.178-1.063-2.314-5.208.153-6.518a8.689 8.689 0 0 1 8.306-.128 4.374 4.374 0 0 1 2.213 4.46h-1.038c0-.052-.094-.094-.094-.145-.127-3.31-2.902-4.332-5.88-4.043a7.804 7.804 0 0 0-2.553.775 2.553 2.553 0 0 0-1.481 2.553 2.553 2.553 0 0 0 1.702 2.4c1.31.476 2.68.783 4.025 1.157 1.081.298 2.204.494 3.251.851a3.838 3.838 0 0 1 2.638 3.464 4.093 4.093 0 0 1-2.204 4.255c-2.842 1.608-7.523 1.183-9.608-.851a5.676 5.676 0 0 1-1.65-4.043zM112.075 23.703h-1.131c0-.153-.06-.29-.077-.417a3.702 3.702 0 0 0-3.013-3.557 7.43 7.43 0 0 0-4.774.23 2.902 2.902 0 0 0-2.102 2.766 2.672 2.672 0 0 0 2.043 2.689c1.702.527 3.446.85 5.174 1.327a14.467 14.467 0 0 1 1.65.503 4.255 4.255 0 0 1 .23 7.922 9.472 9.472 0 0 1-7.659.077 5.31 5.31 0 0 1-3.2-5.157h1.107a6.204 6.204 0 0 0 9.446 3.949 3.038 3.038 0 0 0 1.634-2.843 2.63 2.63 0 0 0-1.795-2.612c-1.328-.494-2.74-.758-4.094-1.192a30.151 30.151 0 0 1-4.144-1.49c-2.128-1.046-2.298-5.156.127-6.467a8.57 8.57 0 0 1 8.442-.093 4.45 4.45 0 0 1 2.136 4.365zM37.944 35.532a1.949 1.949 0 0 1-2.417-.919c-1.388-2.076-2.92-4.059-4.392-6.084l-.638-.851c-1.753 2.348-3.506 4.604-5.106 6.944a1.872 1.872 0 0 1-2.298.902l6.579-8.825-6.12-7.974a2.034 2.034 0 0 1 2.426.85c1.421 2.077 2.996 4.06 4.562 6.162 1.574-2.085 3.131-4.076 4.587-6.136a1.83 1.83 0 0 1 2.28-.85l-2.374 3.148c-1.064 1.404-2.11 2.817-3.217 4.187a.851.851 0 0 0 0 1.268c2.034 2.698 4.051 5.404 6.128 8.178zM65.874 18.64v1.191a6.17 6.17 0 0 0-6.57 6.374V35.566h-1.217V18.708h1.191v3.455c1.473-2.52 3.745-3.455 6.596-3.523zM7.333 26.588c.178-.85.289-1.778.536-2.646 1.472-5.234 7.472-7.413 11.599-4.17 2.417 1.897 3.021 4.587 2.902 7.616H8.754c-.222 5.413 3.685 8.68 8.68 7.013a5.183 5.183 0 0 0 3.293-3.668c.264-.851.69-.996 1.498-.75a6.91 6.91 0 0 1-3.302 5.047 8 8 0 0 1-9.318-1.191A8.383 8.383 0 0 1 7.51 28.92c0-.29-.11-.579-.17-.851q-.008-.757-.008-1.48zm1.438-.366h12.314c-.077-3.923-2.553-6.706-5.855-6.731-3.676-.051-6.306 2.672-6.468 6.714z"/>
    </symbol>
    <symbol id="icon-sass" viewBox="0 0 256 192">
      <path fill="#CD6799" d="M220.281 110.514c-8.906.046-16.647 2.191-23.128 5.362-2.379-4.71-4.757-8.906-5.176-11.984-.467-3.59-1.026-5.782-.467-10.072.56-4.29 3.078-10.399 3.031-10.865-.046-.466-.56-2.658-5.689-2.704-5.129-.047-9.559.979-10.072 2.331-.513 1.352-1.492 4.43-2.145 7.6-.886 4.664-10.258 21.31-15.62 30.03-1.726-3.403-3.218-6.388-3.545-8.766-.466-3.59-1.026-5.782-.466-10.072.56-4.29 3.078-10.398 3.031-10.865-.047-.466-.56-2.658-5.689-2.704-5.13-.047-9.56.979-10.072 2.331-.513 1.353-1.073 4.523-2.145 7.601-1.073 3.078-13.523 30.87-16.787 38.05a214.726 214.726 0 0 1-4.15 8.627s-.047.14-.187.373a117.773 117.773 0 0 1-1.398 2.658v.046c-.7 1.26-1.446 2.425-1.819 2.425-.28 0-.793-3.357.093-7.927 1.865-9.652 6.295-24.667 6.249-25.18 0-.28.839-2.891-2.891-4.244-3.638-1.352-4.943.886-5.27.886-.326 0-.56.793-.56.793s4.058-16.88-7.74-16.88c-7.367 0-17.533 8.067-22.569 15.341a6269.96 6269.96 0 0 0-17.16 9.373c-2.75 1.539-5.595 3.078-8.253 4.523-.187-.186-.373-.42-.56-.606-14.269-15.248-40.661-26.02-39.542-46.49.42-7.461 2.984-27.046 50.687-50.827 39.262-19.352 70.505-13.99 75.914-2.099 7.74 16.974-16.74 48.496-57.309 53.065-15.481 1.726-23.595-4.243-25.646-6.481-2.145-2.332-2.472-2.472-3.265-2.005-1.305.7-.466 2.798 0 4.01 1.213 3.17 6.202 8.766 14.642 11.518 7.461 2.424 25.6 3.777 47.563-4.71 24.574-9.513 43.786-35.952 38.144-58.101-5.643-22.476-42.947-29.89-78.246-17.347C61.086 13.99 38.33 25.74 21.963 41.035 2.518 59.22-.56 75.028.699 81.65c4.524 23.501 36.932 38.796 49.895 50.127-.653.373-1.26.7-1.772.98-6.482 3.217-31.196 16.133-37.351 29.796-6.994 15.481 1.12 26.58 6.482 28.071 16.647 4.617 33.76-3.683 42.946-17.393 9.186-13.709 8.067-31.522 3.824-39.682-.047-.093-.093-.187-.187-.28 1.679-.979 3.404-2.005 5.083-2.984a247.933 247.933 0 0 1 9.373-5.27c-1.586 4.337-2.752 9.513-3.311 16.974-.7 8.767 2.89 20.144 7.6 24.62 2.099 1.96 4.57 2.006 6.156 2.006 5.502 0 7.974-4.57 10.725-9.979 3.357-6.621 6.388-14.315 6.388-14.315s-3.777 20.797 6.482 20.797c3.73 0 7.507-4.85 9.186-7.321v.046s.093-.14.28-.466c.373-.606.606-.98.606-.98v-.092c1.492-2.612 4.85-8.534 9.839-18.373 6.435-12.683 12.637-28.537 12.637-28.537s.56 3.87 2.471 10.305c1.12 3.777 3.45 7.927 5.316 11.937-1.492 2.099-2.425 3.264-2.425 3.264l.047.047c-1.213 1.585-2.518 3.31-3.964 4.99-5.083 6.061-11.144 13.01-11.984 15.014-.98 2.378-.746 4.104 1.12 5.503 1.352 1.026 3.776 1.165 6.248 1.026 4.57-.327 7.787-1.446 9.372-2.145 2.472-.886 5.363-2.239 8.067-4.244 4.99-3.684 8.02-8.953 7.741-15.9-.14-3.824-1.399-7.648-2.938-11.239.467-.652.886-1.305 1.353-1.958 7.88-11.518 13.989-24.155 13.989-24.155s.56 3.87 2.471 10.306c.933 3.264 2.845 6.808 4.523 10.258-7.414 6.016-11.984 13.01-13.616 17.58-2.937 8.487-.653 12.31 3.684 13.196 1.958.42 4.756-.513 6.808-1.399 2.611-.839 5.689-2.284 8.627-4.43 4.99-3.683 9.792-8.813 9.512-15.76-.14-3.171-.979-6.296-2.145-9.327 6.295-2.61 14.409-4.056 24.76-2.844 22.197 2.611 26.58 16.46 25.74 22.29-.839 5.828-5.502 8.999-7.04 9.978-1.54.98-2.052 1.306-1.912 2.005.186 1.026.932.98 2.238.793 1.819-.326 11.658-4.71 12.077-15.435.7-13.709-12.357-28.677-35.439-28.537zM49.055 168.242c-7.368 8.02-17.626 11.051-22.056 8.487-4.756-2.752-2.891-14.596 6.155-23.082 5.502-5.176 12.59-9.98 17.3-12.917 1.072-.653 2.658-1.585 4.57-2.751.326-.187.513-.28.513-.28l1.119-.7c3.31 12.124.14 22.803-7.601 31.243zm53.625-36.465c-2.565 6.249-7.927 22.243-11.191 21.357-2.798-.746-4.524-12.87-.56-24.854 2.005-6.016 6.248-13.197 8.72-15.994 4.01-4.477 8.44-5.97 9.512-4.15 1.353 2.378-4.896 19.724-6.481 23.641zm44.252 21.17c-1.073.56-2.098.933-2.565.653-.326-.187.467-.933.467-.933s5.549-5.968 7.74-8.673c1.26-1.585 2.751-3.45 4.337-5.549v.606c0 7.135-6.902 11.938-9.98 13.896zm34.133-7.787c-.793-.56-.653-2.425 2.005-8.254 1.026-2.285 3.45-6.108 7.601-9.792.466 1.492.793 2.938.746 4.29-.047 9-6.481 12.357-10.352 13.756z"/>
    </symbol>
    <symbol id="icon-node"  viewBox="0 0 512 314">
      <path fill="#539E43" d="M253.11 313.094c-1.733 0-3.351-.462-4.854-1.271l-15.371-9.13c-2.312-1.272-1.156-1.734-.462-1.965 3.12-1.04 3.698-1.272 6.934-3.12.347-.232.81-.116 1.156.115l11.789 7.05c.462.231 1.04.231 1.386 0l46.115-26.698c.462-.231.694-.694.694-1.271v-53.28c0-.579-.232-1.04-.694-1.272l-46.115-26.582c-.462-.232-1.04-.232-1.386 0l-46.115 26.582c-.462.231-.694.809-.694 1.271v53.28c0 .463.232 1.04.694 1.272l12.598 7.281c6.819 3.467 11.095-.578 11.095-4.623v-52.587c0-.693.578-1.387 1.387-1.387h5.894c.694 0 1.387.578 1.387 1.387v52.587c0 9.13-4.97 14.447-13.638 14.447-2.658 0-4.738 0-10.633-2.89l-12.135-6.934c-3.005-1.733-4.854-4.97-4.854-8.437v-53.28c0-3.467 1.849-6.704 4.854-8.437l46.114-26.698c2.89-1.618 6.82-1.618 9.709 0l46.114 26.698c3.005 1.733 4.855 4.97 4.855 8.437v53.28c0 3.467-1.85 6.704-4.855 8.437l-46.114 26.698c-1.503.694-3.236 1.04-4.854 1.04zm14.216-36.637c-20.225 0-24.386-9.246-24.386-17.105 0-.694.578-1.387 1.387-1.387h6.01c.693 0 1.271.462 1.271 1.156.925 6.125 3.583 9.13 15.834 9.13 9.708 0 13.87-2.196 13.87-7.397 0-3.005-1.157-5.2-16.297-6.703-12.598-1.272-20.457-4.045-20.457-14.1 0-9.362 7.86-14.91 21.035-14.91 14.793 0 22.075 5.086 23 16.18 0 .348-.116.694-.347 1.041-.232.231-.578.462-.925.462h-6.01c-.578 0-1.156-.462-1.271-1.04-1.387-6.356-4.97-8.437-14.447-8.437-10.633 0-11.905 3.699-11.905 6.472 0 3.352 1.503 4.392 15.834 6.241 14.216 1.85 20.92 4.508 20.92 14.447-.116 10.171-8.437 15.95-23.116 15.95z"/>
      <path fill="#333" d="M110.028 104.712c0-2.08-1.156-4.046-3.005-5.086l-49.004-28.2c-.81-.463-1.734-.694-2.658-.81h-.463c-.924 0-1.849.347-2.658.81l-49.004 28.2c-1.85 1.04-3.005 3.005-3.005 5.086l.116 75.817c0 1.04.578 2.08 1.502 2.543.925.578 2.08.578 2.89 0l29.125-16.643c1.849-1.04 3.005-3.005 3.005-5.085v-35.482c0-2.08 1.155-4.045 3.005-5.085l12.366-7.166c.925-.578 1.965-.81 3.005-.81 1.04 0 2.08.232 2.89.81l12.366 7.166c1.85 1.04 3.005 3.004 3.005 5.085v35.482c0 2.08 1.156 4.045 3.005 5.085l29.125 16.643a2.82 2.82 0 0 0 3.005 0c.925-.463 1.503-1.503 1.503-2.543l-.116-75.817zM345.571.347c-.924-.463-2.08-.463-2.89 0-.924.578-1.502 1.502-1.502 2.542v75.125c0 .693-.346 1.386-1.04 1.849-.693.346-1.387.346-2.08 0l-12.251-7.05a5.957 5.957 0 0 0-5.895 0l-49.004 28.316c-1.849 1.04-3.005 3.005-3.005 5.085v56.516c0 2.08 1.156 4.046 3.005 5.086l49.004 28.316a5.957 5.957 0 0 0 5.895 0l49.004-28.316c1.849-1.04 3.005-3.005 3.005-5.086V21.844c0-2.196-1.156-4.16-3.005-5.201L345.572.347zm-4.507 143.776c0 .578-.231 1.04-.694 1.271l-16.758 9.708a1.714 1.714 0 0 1-1.503 0l-16.758-9.708c-.463-.231-.694-.809-.694-1.271v-19.417c0-.578.231-1.04.694-1.271l16.758-9.709a1.714 1.714 0 0 1 1.503 0l16.758 9.709c.463.23.694.809.694 1.271v19.417zm167.584-19.879c1.85-1.04 2.89-3.005 2.89-5.086v-13.753c0-2.08-1.156-4.045-2.89-5.085l-48.657-28.2a5.957 5.957 0 0 0-5.894 0l-49.004 28.315c-1.85 1.04-3.005 3.005-3.005 5.086v56.516c0 2.08 1.155 4.045 3.005 5.085l48.657 27.738c1.85 1.04 4.045 1.04 5.779 0L489 178.45c.925-.463 1.503-1.503 1.503-2.543 0-1.04-.578-2.08-1.503-2.543l-49.235-28.316c-.924-.577-1.502-1.502-1.502-2.542v-17.683c0-1.04.578-2.08 1.502-2.543l15.372-8.784a2.821 2.821 0 0 1 3.005 0l15.371 8.784c.925.578 1.503 1.502 1.503 2.543v13.869c0 1.04.578 2.08 1.502 2.542a2.82 2.82 0 0 0 3.005 0l29.125-16.99z"/>
      <path fill="#539E43" d="M456.293 121.586a1.05 1.05 0 0 1 1.155 0l9.362 5.432c.347.23.578.577.578 1.04v10.864c0 .462-.231.809-.578 1.04l-9.362 5.432a1.05 1.05 0 0 1-1.155 0l-9.362-5.432c-.347-.231-.578-.578-.578-1.04v-10.864c0-.463.231-.81.578-1.04l9.362-5.432z"/>
      <path fill="#539E43" d="M185.961 72.351l-48.772 28.083c-1.851 1.041-3.121 3.007-3.121 5.087v56.286c0 1.387.578 2.658 1.502 3.698l54.783-93.848c-1.387-.231-3.005-.116-4.392.693zm4.739 123.203c.462-.116.925-.347 1.387-.578l48.773-28.085c1.85-1.04 3.005-3.005 3.005-5.085V105.52c0-1.502-.694-3.005-1.734-4.045l-51.43 94.079zM240.744 100.435l-48.888-28.084a8.025 8.025 0 0 0-1.503-.578l-54.783 93.848a6.082 6.082 0 0 0 1.619 1.387l48.888 28.085c1.387.809 3.005 1.04 4.507.577l51.432-94.078c-.347-.462-.81-.81-1.272-1.156z"/>
    </symbol>
    <symbol id="icon-handlebars" viewBox="0 0 512 124">
      <path fill="#423426" d="M188.432 0c17.799-.077 36.052 5.03 49.886 16.537 7.089 5.738 12.815 12.937 17.678 20.602 8.75-14.144 21.531-26.162 37.292-31.955 19.206-7.21 40.915-6.712 60.088.355 16.747 6.114 31.39 16.769 44.67 28.487 10.389 9.171 20.003 19.206 30.702 28.034 5.638 4.574 11.696 8.86 18.63 11.23 9.215 3.146 20.114.178 26.704-6.922 6.103-6.645 5.726-18.131-.997-24.2-4.275-3.689-11.585-2.947-14.61 1.97-2.646 3.9-1.162 8.762.91 12.539-5.506-4.02-11.021-9.625-11-16.935-1.14-8.451 5.129-15.906 12.638-18.863 14.654-5.86 33.029-.808 42.278 12.095 8.894 12.04 9.602 27.867 8.052 42.21-1.872 13.624-9.492 26.34-20.79 34.226-15.86 11.32-35.964 14.83-55.092 14.587-18.386-.499-36.584-4.652-53.619-11.52-28.487-11.452-55.147-27.28-84.565-36.428-9.758-3.788-20.136-5.837-30.57-6.469-8.307-.055-16.182-.443-24.024.089-9.57.92-19.084 2.88-28.044 6.39-29.916 9.305-56.975 25.531-86.005 37.006-24.512 9.536-51.67 13.967-77.687 8.672-14.554-2.946-29.042-9.381-38.866-20.845C3.684 91.145-.347 78.098.05 65.316c-.465-12.062 2.182-24.877 10.157-34.27 7.42-8.904 19.372-13.423 30.847-12.426 7.387.343 14.875 3.566 19.438 9.514 3.589 4.707 3.81 11.154 2.237 16.658-1.916 4.951-5.87 8.817-10.167 11.785 2.193-3.7 3.522-8.584.93-12.45-3.19-5.15-11.043-5.67-15.196-1.44-5.117 5.262-6.192 13.857-2.758 20.303 3.721 6.757 11.42 10.611 18.873 11.397 11.276.975 21.056-6.014 29.33-12.792 17.123-14.743 32.54-31.611 51.536-44.083 15.662-10.5 34.114-17.6 53.154-17.511z"/>
    </symbol>
    <symbol id="icon-vilnius" viewBox="0 0 1844 1542">
      <path fill="#c1272d" d="M794.7 12.7c-.4 7.1-1.2 27-1.8 44.3l-1.3 31.5-27.9 6.4c-15.4 3.4-28.3 5.9-28.7 5.4-.4-.4-4.2-17-8.4-36.8C715.9 13.6 716 14 714.7 14c-.7 0-42.9 14.1-94 31.2-78 26.3-92.8 31.6-93.2 33.3-.2 1.1-22.8 175.4-50 387.4-40.4 314.1-49.4 385.7-48.3 386.6.7.7 69.4 42 152.7 91.9l151.4 90.6 83.1.2c45.7.1 131.5 0 190.6-.2l107.5-.3 152.2-91.1c120.4-72 152.3-91.5 152.3-93.1 0-3.8-99.2-773-99.9-773.6-.8-.8-184.9-62.9-186.5-62.9-.8 0-4.4 14.8-10.5 43.2-5.1 23.8-9.5 43.5-9.7 43.7-.2.2-12.9-2.5-28.3-6l-28-6.3-.5-7c-.3-3.9-1-19.9-1.6-35.6-.6-15.7-1.3-32.4-1.6-37.3l-.6-8.7H795.3l-.6 12.7zm166.6 82l18.7.6v40.3c0 37.5.1 40.3 1.8 40.8.9.3 40.9 9.1 88.7 19.6 47.9 10.5 87.7 19.3 88.5 19.5 1.2.4 3.2-7 10.4-39.8 4.8-22.1 9.1-40.5 9.5-40.8.3-.3 10.5 2.3 22.6 5.9l22.1 6.5 38.3 317.3c21.1 174.5 38.2 317.7 38 318.3-.2.6-49.3 30.5-109.1 66.4l-108.6 65.4-158.9-.1-158.8-.1L656 849.2c-59.7-36-108.6-65.5-108.8-65.7-.3-.3 75.5-630.4 76.3-634.1.4-1.7 3.7-3 21.7-8.3 11.6-3.5 21.7-6.5 22.3-6.7.8-.3 4.1 12.7 10 39.3 4.8 21.9 9 40.3 9.4 40.9.4.7 30.2-5.5 89.8-18.6 49.1-10.8 89.5-19.8 89.7-20.1.2-.2.8-18.5 1.2-40.6l.7-40.2 12.1-.4c25.9-.6 63-.7 80.9 0zM1701.5 1234.6c-31.4 4.6-55.5 16-72.8 34.3-17.3 18.4-24.7 42.4-21.9 70.9 1.5 14.9 3.3 21.5 8.7 32.7 14 29.1 45.4 44.3 99.5 48.5 19 1.4 25.9 2.5 35 5.5 8.8 2.9 14.5 7.2 17.1 12.9 4.7 10.3-.1 20.5-12.3 26.7-15.2 7.7-43.3 7.9-60.4.4-9.3-4.1-17.4-13.4-17.4-20v-2.5h-75v4.9c0 2.6.7 8.8 1.5 13.6 7.6 43.5 48.2 73.8 105.6 78.7 29.8 2.5 59.6-2.9 84.1-15.4 33.3-17 50.8-44.1 50.8-78.8 0-43.6-20.8-69-65.7-80.4-12-3.1-23.3-4.9-46.3-7.6-34-4-44.9-7.9-50-18-2.7-5.2-2.7-14.7-.1-19.9 11-21.5 57.3-25.9 73.5-6.9 3.2 3.7 5.6 9.5 5.6 13.7v2.1h74.2l-.7-8.8c-3.1-37.1-26.4-65.6-65-79.2-16.2-5.7-25.1-7.1-46-7.5-10.4-.2-20.3-.1-22 .1zM747 1269v33h40v233h80l.2-71.9.3-71.9 74.5 71.9 74.5 71.9h28.5v-296h-79l-.2 71.5-.3 71.6-75.5-73-75.5-73-33.7-.1H747v33zM0 1245c0 5.8 2.3 11.2 63.8 149.5l63.7 143.5 16.9-.3 17-.2 63.2-143.5c59.3-134.3 63.3-143.9 63.4-149.3v-5.7h-37.4c-29 0-37.5.3-37.9 1.2-5.3 13.9-67.1 164.5-67.7 165.1-.4.5-3.1-4.7-5.9-11.5-2.9-6.8-18.6-44.3-34.9-83.3l-29.7-71-37.3-.3L0 1239v6zM330 1272v33h35v163h-38v67h153v-67h-38v-163h35v-66H330v33zM539 1387v148h186v-69H617v-227h-78v148zM1109 1272v33h35v163h-38v67h152v-67h-38v-163h35v-66h-146v33zM1315 1343.7c0 98.3.1 105.4 1.9 113.8 7.2 34.8 34.4 62.8 72.7 74.8 16.5 5.2 23.6 6.2 43.9 6.2 14.1 0 21.2-.5 27.7-1.8 42.6-8.6 73.8-33.5 85.9-68.4 4.8-14.1 4.9-15.7 4.9-125.9V1239h-74v100.7c0 65.5-.4 102.1-1 104.5-2.7 9.5-12.4 18.6-24.3 22.8-8.7 3.1-24 3.8-32.7 1.6-14-3.5-23-10-27.9-19.8l-3.1-6.1V1239h-74v104.7z"/>
    </symbol>
  </defs>
</svg>